<svg width="45" height="46" viewBox="0 0 45 46" fill="none" xmlns="http://www.w3.org/2000/svg">
<g clip-path="url(#clip0_10_238)">
<path d="M1.58496 40.4772V5.60837C1.58496 4.76766 1.91893 3.96139 2.5134 3.36692C3.10787 2.77245 3.91415 2.43848 4.75486 2.43848H39.6237C40.4644 2.43848 41.2707 2.77245 41.8652 3.36692C42.4596 3.96139 42.7936 4.76766 42.7936 5.60837V40.4772C42.7936 41.3179 42.4596 42.1242 41.8652 42.7187C41.2707 43.3132 40.4644 43.6471 39.6237 43.6471H30.114V28.6218H32.3647C32.8775 28.6218 33.3693 28.4181 33.7319 28.0555C34.0946 27.6928 34.2983 27.201 34.2983 26.6882V24.2474C34.2975 23.7348 34.0935 23.2434 33.731 22.881C33.3686 22.5186 32.8772 22.3146 32.3647 22.3137H30.2408V19.334C30.2408 16.6713 31.4454 16.6713 32.6499 16.6713H34.2032C34.4583 16.6818 34.7126 16.6362 34.9482 16.5376C35.1837 16.439 35.3947 16.2898 35.5663 16.1007C35.7505 15.9254 35.8963 15.7137 35.9945 15.479C36.0927 15.2444 36.1412 14.992 36.1368 14.7377V12.392C36.1461 12.1336 36.1042 11.876 36.0135 11.6339C35.9228 11.3919 35.7851 11.1702 35.6083 10.9816C35.4315 10.793 35.2191 10.6413 34.9834 10.5351C34.7477 10.429 34.4933 10.3706 34.2349 10.3632H30.5895C29.5258 10.3232 28.4662 10.5146 27.4837 10.9242C26.5012 11.3337 25.6193 11.9516 24.899 12.7353C24.1787 13.5189 23.637 14.4496 23.3115 15.463C22.9859 16.4764 22.8842 17.5484 23.0135 18.6049V22.3137H20.9847C20.7281 22.3095 20.4733 22.3564 20.235 22.4517C19.9967 22.547 19.7798 22.6888 19.5969 22.8687C19.414 23.0487 19.2687 23.2633 19.1696 23.5C19.0704 23.7367 19.0194 23.9907 19.0194 24.2474V26.6882C19.0194 26.9448 19.0704 27.1989 19.1696 27.4355C19.2687 27.6722 19.414 27.8868 19.5969 28.0668C19.7798 28.2468 19.9967 28.3885 20.235 28.4838C20.4733 28.5791 20.7281 28.626 20.9847 28.6218H23.0135V43.6471H4.75486C3.91415 43.6471 3.10787 43.3132 2.5134 42.7187C1.91893 42.1242 1.58496 41.3179 1.58496 40.4772Z" stroke="#1A1A1A" stroke-width="3.1699" stroke-linecap="round" stroke-linejoin="round"/>
</g>
<defs>
<clipPath id="clip0_10_238">
<rect width="44.3786" height="44.3786" fill="white" transform="translate(0 0.852539)"/>
</clipPath>
</defs>
</svg>
