<svg width="46" height="46" viewBox="0 0 46 46" fill="none" xmlns="http://www.w3.org/2000/svg">
<g clip-path="url(#clip0_10_240)">
<path d="M33.38 11.3699H36.3848M13.8488 2.35547H31.8776C35.0653 2.35547 38.1224 3.62177 40.3764 5.87581C42.6305 8.12984 43.8968 11.187 43.8968 14.3747V32.4034C43.8968 35.5911 42.6305 38.6483 40.3764 40.9023C38.1224 43.1563 35.0653 44.4226 31.8776 44.4226H13.8488C10.6611 44.4226 7.60396 43.1563 5.34993 40.9023C3.09589 38.6483 1.82959 35.5911 1.82959 32.4034V14.3747C1.82959 11.187 3.09589 8.12984 5.34993 5.87581C7.60396 3.62177 10.6611 2.35547 13.8488 2.35547ZM22.8632 32.4034C20.4724 32.4034 18.1796 31.4537 16.489 29.7632C14.7985 28.0727 13.8488 25.7798 13.8488 23.3891C13.8488 20.9983 14.7985 18.7054 16.489 17.0149C18.1796 15.3244 20.4724 14.3747 22.8632 14.3747C25.2539 14.3747 27.5468 15.3244 29.2373 17.0149C30.9278 18.7054 31.8776 20.9983 31.8776 23.3891C31.8776 25.7798 30.9278 28.0727 29.2373 29.7632C27.5468 31.4537 25.2539 32.4034 22.8632 32.4034Z" stroke="#1A1A1A" stroke-width="3.0048"/>
</g>
<defs>
<clipPath id="clip0_10_240">
<rect width="45.072" height="45.072" fill="white" transform="translate(0.327148 0.852539)"/>
</clipPath>
</defs>
</svg>
