<svg width="46" height="46" viewBox="0 0 46 46" fill="none" xmlns="http://www.w3.org/2000/svg">
<path d="M41.8056 0.200195H3.66776C2.74823 0.200195 1.86637 0.565475 1.21617 1.21568C0.565963 1.86588 0.200684 2.74774 0.200684 3.66727V41.8051C0.200684 42.7246 0.565963 43.6065 1.21617 44.2567C1.86637 44.9069 2.74823 45.2722 3.66776 45.2722H41.8056C42.7251 45.2722 43.607 44.9069 44.2572 44.2567C44.9074 43.6065 45.2726 42.7246 45.2726 41.8051V3.66727C45.2726 2.74774 44.9074 1.86588 44.2572 1.21568C43.607 0.565475 42.7251 0.200195 41.8056 0.200195ZM41.8056 41.8051H3.66776V3.66727H41.8056V41.8051ZM15.8025 19.2691V33.1374C15.8025 33.5972 15.6199 34.0381 15.2948 34.3632C14.9697 34.6883 14.5287 34.8709 14.069 34.8709C13.6092 34.8709 13.1683 34.6883 12.8432 34.3632C12.5181 34.0381 12.3354 33.5972 12.3354 33.1374V19.2691C12.3354 18.8093 12.5181 18.3684 12.8432 18.0433C13.1683 17.7182 13.6092 17.5356 14.069 17.5356C14.5287 17.5356 14.9697 17.7182 15.2948 18.0433C15.6199 18.3684 15.8025 18.8093 15.8025 19.2691ZM34.8714 25.3365V33.1374C34.8714 33.5972 34.6888 34.0381 34.3637 34.3632C34.0386 34.6883 33.5977 34.8709 33.1379 34.8709C32.6781 34.8709 32.2372 34.6883 31.9121 34.3632C31.587 34.0381 31.4044 33.5972 31.4044 33.1374V25.3365C31.4044 24.1871 30.9478 23.0847 30.135 22.272C29.3222 21.4592 28.2199 21.0026 27.0705 21.0026C25.9211 21.0026 24.8188 21.4592 24.006 22.272C23.1933 23.0847 22.7367 24.1871 22.7367 25.3365V33.1374C22.7367 33.5972 22.554 34.0381 22.2289 34.3632C21.9038 34.6883 21.4629 34.8709 21.0031 34.8709C20.5434 34.8709 20.1024 34.6883 19.7773 34.3632C19.4522 34.0381 19.2696 33.5972 19.2696 33.1374V19.2691C19.2717 18.8445 19.4297 18.4354 19.7134 18.1195C19.9971 17.8036 20.387 17.6028 20.8089 17.5553C21.2309 17.5077 21.6556 17.6166 22.0026 17.8615C22.3495 18.1063 22.5945 18.4699 22.6912 18.8834C23.8639 18.0879 25.2311 17.6268 26.6461 17.5497C28.0611 17.4726 29.4703 17.7824 30.7225 18.4458C31.9747 19.1092 33.0226 20.1012 33.7535 21.3152C34.4845 22.5292 34.871 23.9194 34.8714 25.3365ZM16.6693 13.2017C16.6693 13.716 16.5168 14.2188 16.2311 14.6464C15.9453 15.074 15.5392 15.4073 15.0641 15.6041C14.5889 15.8009 14.0661 15.8524 13.5617 15.7521C13.0573 15.6517 12.5939 15.4041 12.2303 15.0404C11.8666 14.6768 11.619 14.2134 11.5186 13.709C11.4183 13.2046 11.4698 12.6818 11.6666 12.2066C11.8634 11.7315 12.1967 11.3254 12.6243 11.0396C13.0519 10.7539 13.5547 10.6014 14.069 10.6014C14.7586 10.6014 15.42 10.8754 15.9077 11.363C16.3953 11.8507 16.6693 12.5121 16.6693 13.2017Z" fill="#1A1A1A"/>
</svg>
